#Comment line ignore any data following # character 
#Hierarchical Translation and Rotation (.htr) file 
[Header]	
#Header keywords are followed by a single value 
FileType HTR		#Single word string
DataType HTRS		#Translation followed by rotation and scale data
FileVersion 1		#integer
NumSegments 84		#integer
NumFrames 2		#integer
DataFrameRate 30		#integer, data frame rate in this file
EulerRotationOrder ZYX
CalibrationUnits mm
RotationUnits Degrees
GlobalAxisofGravity Y
BoneLengthAxis Y
ScaleFactor 1.00
[SegmentNames&Hierarchy]
#CHILD	PARENT
MASTER GLOBAL
root MASTER
chest root
L_mid_tent01 root
R_mid_tent01 root
spine01 root
Bip01_Neck chest
L_humerus chest
R_humerus chest
weapon_bone chest
Bip01_Head Bip01_Neck
eye_left_bone Bip01_Head
eye_right_bone Bip01_Head
L_forearm L_humerus
L_front_hand L_forearm
L_weapon_bone L_forearm
L_front_hand01_01 L_front_hand
L_front_hand02_01 L_front_hand
L_front_hand03_01 L_front_hand
L_front_hand01_02 L_front_hand01_01
L_front_hand02_02 L_front_hand02_01
L_front_hand03_02 L_front_hand03_01
R_forearm R_humerus
R_front_hand R_forearm
R_weapon_bone R_forearm
R_front_hand01_01 R_front_hand
R_front_hand02_01 R_front_hand
R_front_hand03_01 R_front_hand
R_front_hand01_02 R_front_hand01_01
R_front_hand02_02 R_front_hand02_01
R_front_hand03_02 R_front_hand03_01
null_rope01_connect L_mid_tent01
Rope1_Seg01 null_rope01_connect
Rope1_Seg02 Rope1_Seg01
Rope1_Seg03 Rope1_Seg02
Rope1_Seg04 Rope1_Seg03
Rope1_Seg05 Rope1_Seg04
Rope1_Seg06 Rope1_Seg05
Rope1_Seg07 Rope1_Seg06
Rope1_Seg09 Rope1_Seg07
L_mid_hand01 Rope1_Seg09
L_mid_hand02 Rope1_Seg09
L_mid_hand03 Rope1_Seg09
null_rope02_connect R_mid_tent01
Rope2_Seg01 null_rope02_connect
Rope2_Seg02 Rope2_Seg01
Rope2_Seg03 Rope2_Seg02
Rope2_Seg04 Rope2_Seg03
Rope2_Seg05 Rope2_Seg04
Rope2_Seg06 Rope2_Seg05
Rope2_Seg07 Rope2_Seg06
Rope2_Seg09 Rope2_Seg07
R_mid_hand01 Rope2_Seg09
R_mid_hand02 Rope2_Seg09
R_mid_hand03 Rope2_Seg09
spine02 spine01
spine03 spine02
pelvis spine03
null_rope03_connect pelvis
null_rope04_connect pelvis
Rope3_Seg01 null_rope03_connect
Rope3_Seg02 Rope3_Seg01
Rope3_Seg03 Rope3_Seg02
Rope3_Seg04 Rope3_Seg03
Rope3_Seg05 Rope3_Seg04
Rope3_Seg06 Rope3_Seg05
Rope3_Seg07 Rope3_Seg06
Rope3_Seg08 Rope3_Seg07
Rope3_Seg09 Rope3_Seg08
R_rear_hand01 Rope3_Seg09
R_rear_hand02 Rope3_Seg09
R_rear_hand03 Rope3_Seg09
Rope4_Seg01 null_rope04_connect
Rope4_Seg02 Rope4_Seg01
Rope4_Seg03 Rope4_Seg02
Rope4_Seg04 Rope4_Seg03
Rope4_Seg05 Rope4_Seg04
Rope4_Seg06 Rope4_Seg05
Rope4_Seg07 Rope4_Seg06
Rope4_Seg08 Rope4_Seg07
Rope4_Seg09 Rope4_Seg08
L_rear_hand01 Rope4_Seg09
L_rear_hand02 Rope4_Seg09
L_rear_hand03 Rope4_Seg09
[BasePosition]
#SegmentName Tx, Ty, Tz, Rx, Ry, Rz, BoneLength
MASTER 0.000000 0.000000 0.000000 -90.000000 0.000000 0.000000 10.000000 
root 0.000000 0.000000 0.000000 0.000000 0.000000 0.000000 10.000000 
chest 0.000000 0.000000 0.000000 0.000000 0.000000 0.000000 10.000000 
L_mid_tent01 0.000000 0.000000 0.000000 0.000000 0.000000 0.000000 10.000000 
R_mid_tent01 0.000000 0.000000 0.000000 0.000000 0.000000 0.000000 10.000000 
spine01 0.000000 0.000000 0.000000 0.000000 0.000000 0.000000 10.000000 
Bip01_Neck 0.000000 0.000000 0.000000 0.000000 0.000000 0.000000 10.000000 
L_humerus 0.000000 0.000000 0.000000 0.000000 0.000000 0.000000 10.000000 
R_humerus 0.000000 0.000000 0.000000 0.000000 0.000000 0.000000 10.000000 
weapon_bone 0.000000 0.000000 0.000000 0.000000 0.000000 0.000000 10.000000 
Bip01_Head 0.000000 0.000000 0.000000 0.000000 0.000000 0.000000 10.000000 
eye_left_bone 0.000000 0.000000 0.000000 0.000000 0.000000 0.000000 10.000000 
eye_right_bone 0.000000 0.000000 0.000000 0.000000 0.000000 0.000000 10.000000 
L_forearm 0.000000 0.000000 0.000000 0.000000 0.000000 0.000000 10.000000 
L_front_hand 0.000000 0.000000 0.000000 0.000000 0.000000 0.000000 10.000000 
L_weapon_bone 0.000000 0.000000 0.000000 0.000000 0.000000 0.000000 10.000000 
L_front_hand01_01 0.000000 0.000000 0.000000 0.000000 0.000000 0.000000 10.000000 
L_front_hand02_01 0.000000 0.000000 0.000000 0.000000 0.000000 0.000000 10.000000 
L_front_hand03_01 0.000000 0.000000 0.000000 0.000000 0.000000 0.000000 10.000000 
L_front_hand01_02 0.000000 0.000000 0.000000 0.000000 0.000000 0.000000 10.000000 
L_front_hand02_02 0.000000 0.000000 0.000000 0.000000 0.000000 0.000000 10.000000 
L_front_hand03_02 0.000000 0.000000 0.000000 0.000000 0.000000 0.000000 10.000000 
R_forearm 0.000000 0.000000 0.000000 0.000000 0.000000 0.000000 10.000000 
R_front_hand 0.000000 0.000000 0.000000 0.000000 0.000000 0.000000 10.000000 
R_weapon_bone 0.000000 0.000000 0.000000 0.000000 0.000000 0.000000 10.000000 
R_front_hand01_01 0.000000 0.000000 0.000000 0.000000 0.000000 0.000000 10.000000 
R_front_hand02_01 0.000000 0.000000 0.000000 0.000000 0.000000 0.000000 10.000000 
R_front_hand03_01 0.000000 0.000000 0.000000 0.000000 0.000000 0.000000 10.000000 
R_front_hand01_02 0.000000 0.000000 0.000000 0.000000 0.000000 0.000000 10.000000 
R_front_hand02_02 0.000000 0.000000 0.000000 0.000000 0.000000 0.000000 10.000000 
R_front_hand03_02 0.000000 0.000000 0.000000 0.000000 0.000000 0.000000 10.000000 
null_rope01_connect 0.000000 0.000000 0.000000 0.000000 0.000000 0.000000 10.000000 
Rope1_Seg01 0.000000 0.000000 0.000000 0.000000 0.000000 0.000000 10.000000 
Rope1_Seg02 0.000000 0.000000 0.000000 0.000000 0.000000 0.000000 10.000000 
Rope1_Seg03 0.000000 0.000000 0.000000 0.000000 0.000000 0.000000 10.000000 
Rope1_Seg04 0.000000 0.000000 0.000000 0.000000 0.000000 0.000000 10.000000 
Rope1_Seg05 0.000000 0.000000 0.000000 0.000000 0.000000 0.000000 10.000000 
Rope1_Seg06 0.000000 0.000000 0.000000 0.000000 0.000000 0.000000 10.000000 
Rope1_Seg07 0.000000 0.000000 0.000000 0.000000 0.000000 0.000000 10.000000 
Rope1_Seg09 0.000000 0.000000 0.000000 0.000000 0.000000 0.000000 10.000000 
L_mid_hand01 0.000000 0.000000 0.000000 0.000000 0.000000 0.000000 10.000000 
L_mid_hand02 0.000000 0.000000 0.000000 0.000000 0.000000 0.000000 10.000000 
L_mid_hand03 0.000000 0.000000 0.000000 0.000000 0.000000 0.000000 10.000000 
null_rope02_connect 0.000000 0.000000 0.000000 0.000000 0.000000 0.000000 10.000000 
Rope2_Seg01 0.000000 0.000000 0.000000 0.000000 0.000000 0.000000 10.000000 
Rope2_Seg02 0.000000 0.000000 0.000000 0.000000 0.000000 0.000000 10.000000 
Rope2_Seg03 0.000000 0.000000 0.000000 0.000000 0.000000 0.000000 10.000000 
Rope2_Seg04 0.000000 0.000000 0.000000 0.000000 0.000000 0.000000 10.000000 
Rope2_Seg05 0.000000 0.000000 0.000000 0.000000 0.000000 0.000000 10.000000 
Rope2_Seg06 0.000000 0.000000 0.000000 0.000000 0.000000 0.000000 10.000000 
Rope2_Seg07 0.000000 0.000000 0.000000 0.000000 0.000000 0.000000 10.000000 
Rope2_Seg09 0.000000 0.000000 0.000000 0.000000 0.000000 0.000000 10.000000 
R_mid_hand01 0.000000 0.000000 0.000000 0.000000 0.000000 0.000000 10.000000 
R_mid_hand02 0.000000 0.000000 0.000000 0.000000 0.000000 0.000000 10.000000 
R_mid_hand03 0.000000 0.000000 0.000000 0.000000 0.000000 0.000000 10.000000 
spine02 0.000000 0.000000 0.000000 0.000000 0.000000 0.000000 10.000000 
spine03 0.000000 0.000000 0.000000 0.000000 0.000000 0.000000 10.000000 
pelvis 0.000000 0.000000 0.000000 0.000000 0.000000 0.000000 10.000000 
null_rope03_connect 0.000000 0.000000 0.000000 0.000000 0.000000 0.000000 10.000000 
null_rope04_connect 0.000000 0.000000 0.000000 0.000000 0.000000 0.000000 10.000000 
Rope3_Seg01 0.000000 0.000000 0.000000 0.000000 0.000000 0.000000 10.000000 
Rope3_Seg02 0.000000 0.000000 0.000000 0.000000 0.000000 0.000000 10.000000 
Rope3_Seg03 0.000000 0.000000 0.000000 0.000000 0.000000 0.000000 10.000000 
Rope3_Seg04 0.000000 0.000000 0.000000 0.000000 0.000000 0.000000 10.000000 
Rope3_Seg05 0.000000 0.000000 0.000000 0.000000 0.000000 0.000000 10.000000 
Rope3_Seg06 0.000000 0.000000 0.000000 0.000000 0.000000 0.000000 10.000000 
Rope3_Seg07 0.000000 0.000000 0.000000 0.000000 0.000000 0.000000 10.000000 
Rope3_Seg08 0.000000 0.000000 0.000000 0.000000 0.000000 0.000000 10.000000 
Rope3_Seg09 0.000000 0.000000 0.000000 0.000000 0.000000 0.000000 10.000000 
R_rear_hand01 0.000000 0.000000 0.000000 0.000000 0.000000 0.000000 10.000000 
R_rear_hand02 0.000000 0.000000 0.000000 0.000000 0.000000 0.000000 10.000000 
R_rear_hand03 0.000000 0.000000 0.000000 0.000000 0.000000 0.000000 10.000000 
Rope4_Seg01 0.000000 0.000000 0.000000 0.000000 0.000000 0.000000 10.000000 
Rope4_Seg02 0.000000 0.000000 0.000000 0.000000 0.000000 0.000000 10.000000 
Rope4_Seg03 0.000000 0.000000 0.000000 0.000000 0.000000 0.000000 10.000000 
Rope4_Seg04 0.000000 0.000000 0.000000 0.000000 0.000000 0.000000 10.000000 
Rope4_Seg05 0.000000 0.000000 0.000000 0.000000 0.000000 0.000000 10.000000 
Rope4_Seg06 0.000000 0.000000 0.000000 0.000000 0.000000 0.000000 10.000000 
Rope4_Seg07 0.000000 0.000000 0.000000 0.000000 0.000000 0.000000 10.000000 
Rope4_Seg08 0.000000 0.000000 0.000000 0.000000 0.000000 0.000000 10.000000 
Rope4_Seg09 0.000000 0.000000 0.000000 0.000000 0.000000 0.000000 10.000000 
L_rear_hand01 0.000000 0.000000 0.000000 0.000000 0.000000 0.000000 10.000000 
L_rear_hand02 0.000000 0.000000 0.000000 0.000000 0.000000 0.000000 10.000000 
L_rear_hand03 0.000000 0.000000 0.000000 0.000000 0.000000 0.000000 10.000000 
#Beginning of Data. Separated by tabs
#Fr	Tx	Ty	Tz	Rx	Ry	Rz	SF
[MASTER]
97 0.000000 0.000000 0.000000 0.000000 -0.002347 -90.000000 0.000000
98 0.000000 0.000000 0.000000 0.000000 -0.002347 -90.000000 0.000000
[root]
97 -14.348903 -39.367947 516.770142 -88.582230 -10.448836 179.361130 518.466125
98 -14.348903 -14.644035 547.200256 -88.582230 -10.448836 179.361130 547.584229
[chest]
97 -84.512650 -34.090519 0.000000 -0.677132 -3.693081 -179.361328 91.129311
98 -84.512650 -34.090519 0.000000 -2.998031 -3.845679 179.277267 91.129311
[L_mid_tent01]
97 27.299511 22.177458 -249.918259 -63.657536 18.686338 33.262241 252.381134
98 27.299511 22.177458 -249.918259 -63.657536 18.686338 33.262241 252.381134
[R_mid_tent01]
97 23.228794 24.509907 226.238495 -131.259216 -15.836094 39.582561 228.744751
98 23.228794 24.509907 226.238495 -131.259216 -15.836094 39.582561 228.744751
[spine01]
97 -0.361383 -0.195265 0.000000 0.001845 0.001451 13.654368 0.410763
98 -0.361383 -0.195265 0.000000 0.001845 0.001451 13.654368 0.410763
[Bip01_Neck]
97 165.484543 71.581718 0.000119 176.643677 -1.657967 43.431911 180.302734
98 165.484543 71.581718 0.000119 176.643677 -1.657967 43.431911 180.302734
[L_humerus]
97 -13.983130 -135.272980 -120.471481 144.745804 33.177677 -131.920197 181.680161
98 -13.983130 -135.272980 -120.471481 144.208374 34.153065 -132.423325 181.680161
[R_humerus]
97 -13.983309 -135.273102 125.287651 -146.114899 -25.296293 -136.214767 184.909012
98 -13.983309 -135.273102 125.287651 -145.407669 -25.927015 -136.796188 184.909012
[weapon_bone]
97 235.964890 -300.705902 0.000000 0.000000 -89.951546 -128.212341 382.234833
98 235.964890 -300.705902 0.000000 0.000000 -89.951546 -128.212341 382.234833
[Bip01_Head]
97 128.171936 128.412277 8.333419 1.938589 3.724703 -19.795942 181.623810
98 128.171936 128.412277 8.333419 1.938589 3.724703 -19.795942 181.623810
[eye_left_bone]
97 -24.626970 125.451866 -64.772606 0.000000 -90.000000 -99.840431 143.318359
98 -24.626970 125.451866 -64.772606 0.000000 -90.000000 -99.840431 143.318359
[eye_right_bone]
97 -24.626970 125.451866 64.327362 0.000000 -89.965736 80.156380 143.117676
98 -24.626970 125.451866 64.327362 0.000000 -89.965736 80.156380 143.117676
[L_forearm]
97 322.776093 0.000000 -0.000119 0.000395 -0.002314 -109.354332 322.776093
98 322.776093 0.000000 -0.000119 0.000378 -0.002317 -108.551163 322.776093
[L_front_hand]
97 241.149185 -0.042021 -3.300071 -10.308094 -1.835255 -27.423668 241.171753
98 241.149185 -0.042021 -3.300071 24.043095 -1.835773 -27.423082 241.171753
[L_weapon_bone]
97 156.183838 0.000000 0.000000 0.000014 0.000007 0.000001 156.183838
98 156.183838 0.000000 0.000000 0.000014 0.000007 0.000001 156.183838
[L_front_hand01_01]
97 86.095154 20.947098 -0.655860 -0.366594 -0.477154 75.385574 88.609184
98 86.095154 20.947098 -0.655860 -0.366594 -0.477154 75.385574 88.609184
[L_front_hand02_01]
97 86.935165 -11.437475 24.513514 154.399796 -59.883835 -61.369587 91.046425
98 86.935165 -11.437475 24.513514 154.399796 -59.883835 -61.369587 91.046425
[L_front_hand03_01]
97 86.637497 -14.123976 -20.424902 -153.913849 58.118122 -62.702866 90.126129
98 86.637497 -14.123976 -20.424902 -153.913849 58.118122 -62.702866 90.126129
[L_front_hand01_02]
97 71.020905 -0.000179 0.000030 0.000334 -0.002323 -106.379684 71.020905
98 71.020905 -0.000179 0.000030 0.000334 -0.002323 -106.379684 71.020905
[L_front_hand02_02]
97 71.020927 -0.000119 0.000060 0.000334 -0.002323 -106.379684 71.020927
98 71.020927 -0.000119 0.000060 0.000334 -0.002323 -106.379684 71.020927
[L_front_hand03_02]
97 71.020905 -0.000060 0.000060 0.000334 -0.002323 -106.379684 71.020905
98 71.020905 -0.000060 0.000060 0.000334 -0.002323 -106.379684 71.020905
[R_forearm]
97 322.776428 -0.000060 0.000030 0.175381 0.118562 -124.849327 322.776428
98 322.776428 -0.000060 0.000030 0.182101 0.112579 -122.510048 322.776428
[R_front_hand]
97 238.847015 -0.006795 2.210259 -15.756470 -10.646538 -26.314613 238.857239
98 238.847015 -0.006795 2.210259 -48.680317 -10.645487 -26.314417 238.857239
[R_weapon_bone]
97 155.664093 0.002503 -0.000030 0.003487 0.001180 -90.988930 155.664078
98 155.664093 0.002503 -0.000030 0.003487 0.001180 -90.988930 155.664078
[R_front_hand01_01]
97 87.624611 14.231146 22.918642 -154.633499 -59.950619 61.746044 91.683487
98 87.624611 14.231146 22.918642 -154.633484 -59.950619 61.746037 91.683487
[R_front_hand02_01]
97 89.356956 14.367283 -19.491137 154.602661 58.302849 63.744389 92.579636
98 89.356956 14.367283 -19.491137 154.602661 58.302849 63.744389 92.579636
[R_front_hand03_01]
97 87.286232 -22.307278 -0.143439 0.162155 -0.423168 -75.767921 90.091743
98 87.286232 -22.307278 -0.143439 0.162155 -0.423168 -75.767921 90.091743
[R_front_hand01_02]
97 71.020905 0.000060 0.000119 0.002323 -0.000334 106.381714 71.020905
98 71.020905 0.000060 0.000119 0.002323 -0.000334 106.381714 71.020905
[R_front_hand02_02]
97 71.020844 -0.000030 -0.000119 0.002323 -0.000334 106.381714 71.020836
98 71.020844 -0.000030 -0.000119 0.002323 -0.000334 106.381714 71.020836
[R_front_hand03_02]
97 71.020905 0.000000 0.000030 0.002323 -0.000334 106.381714 71.020905
98 71.020905 0.000000 0.000030 0.002323 -0.000334 106.381714 71.020905
[null_rope01_connect]
97 328.732483 0.000000 -0.000238 -166.231216 26.298847 69.278114 328.732483
98 328.732483 0.000000 -0.000238 -166.231216 26.298847 69.278114 328.732483
[Rope1_Seg01]
97 0.000000 0.000000 0.000000 127.909668 -29.794573 -58.133652 0.000000
98 0.000000 0.000000 0.000000 125.533195 -26.218800 -58.355389 0.000000
[Rope1_Seg02]
97 139.999863 -0.000179 0.000000 -4.783534 -4.936657 -5.368129 139.999863
98 139.999863 -0.000179 0.000000 -4.723509 -4.901523 -5.540628 139.999863
[Rope1_Seg03]
97 139.999924 0.000060 -0.000060 -6.739207 -7.100613 -9.280534 139.999924
98 139.999924 0.000060 -0.000060 -6.472438 -6.893217 -9.351358 139.999924
[Rope1_Seg04]
97 139.999924 -0.000060 -0.000119 -8.382646 -10.513635 -17.806852 139.999924
98 139.999924 -0.000060 -0.000119 -7.762427 -9.791870 -17.039557 139.999924
[Rope1_Seg05]
97 139.999832 0.000119 -0.000060 -4.891602 -8.285665 -21.803017 139.999832
98 139.999832 0.000119 -0.000060 -4.578700 -7.454143 -19.807005 139.999832
[Rope1_Seg06]
97 139.999954 0.000119 -0.000060 -1.009055 -2.624733 -17.812525 139.999954
98 139.999954 0.000119 -0.000060 -1.021068 -3.379920 -20.141500 139.999954
[Rope1_Seg07]
97 139.999985 0.000060 0.000000 4.023607 -1.794517 -28.014528 139.999985
98 139.999985 0.000060 0.000000 5.475140 -3.449647 -30.454233 139.999985
[Rope1_Seg09]
97 121.602913 0.000119 -0.000089 -89.793175 -1.359789 0.847147 121.602913
98 121.602913 0.000119 -0.000089 -89.793175 -1.359789 0.847147 121.602913
[L_mid_hand01]
97 103.859421 1.038730 8.195221 109.056198 -40.604698 -13.201401 104.187431
98 103.859421 1.038730 8.195221 109.056198 -40.604698 -13.201401 104.187431
[L_mid_hand02]
97 105.572853 -4.139662 -10.864139 -146.713593 31.476517 -37.902306 106.211075
98 105.572853 -4.139662 -10.864139 -146.713593 31.476517 -37.902306 106.211075
[L_mid_hand03]
97 104.641464 17.579376 -3.913581 -14.267233 12.322316 43.898396 106.179977
98 104.641464 17.579376 -3.913581 -14.267233 12.322316 43.898396 106.179977
[null_rope02_connect]
97 328.732849 0.000179 -0.000119 -164.342651 -37.938038 110.680077 328.732849
98 328.732849 0.000179 -0.000119 -164.342651 -37.938038 110.680077 328.732849
[Rope2_Seg01]
97 -0.000038 -0.000114 0.000107 -65.538620 -40.117359 -109.052032 0.000161
98 -0.000038 -0.000114 0.000107 -62.153240 -34.378326 -109.254898 0.000162
[Rope2_Seg02]
97 139.999741 -0.000060 -0.000119 4.919447 4.445179 7.197022 139.999756
98 139.999741 -0.000060 -0.000119 4.982294 5.477308 7.118252 139.999756
[Rope2_Seg03]
97 140.000107 0.000030 0.000000 8.607638 9.362857 12.892558 140.000107
98 140.000107 0.000030 0.000000 7.669290 10.516610 11.736063 140.000107
[Rope2_Seg04]
97 139.999802 0.000000 -0.000060 14.186820 22.375645 24.639635 139.999802
98 139.999802 0.000000 -0.000060 10.251676 21.620491 19.516308 139.999802
[Rope2_Seg05]
97 139.999985 -0.000060 0.000119 4.584885 22.702730 17.686861 139.999985
98 139.999985 -0.000060 0.000119 2.566091 19.290215 13.658978 139.999985
[Rope2_Seg06]
97 139.999893 -0.000030 -0.000119 -0.843190 9.016436 7.814823 139.999893
98 139.999893 -0.000030 -0.000119 -1.096369 10.776083 9.637118 139.999893
[Rope2_Seg07]
97 139.999893 0.000060 -0.000060 -2.347275 11.058759 13.459240 139.999893
98 139.999893 0.000060 -0.000060 -3.762667 17.338301 18.928093 139.999893
[Rope2_Seg09]
97 121.338966 0.000089 -0.000060 33.793236 -1.359788 -0.847141 121.338966
98 121.338966 0.000089 -0.000060 33.793236 -1.359788 -0.847141 121.338966
[R_mid_hand01]
97 104.680779 11.144459 -10.335981 -37.204067 31.906805 37.576252 105.778534
98 104.680779 11.144459 -10.335981 -37.204067 31.906805 37.576252 105.778534
[R_mid_hand02]
97 104.070427 2.443552 8.231699 70.367462 -42.427391 14.067809 104.424065
98 104.070427 2.443552 8.231699 70.367462 -42.427391 14.067809 104.424065
[R_mid_hand03]
97 106.028137 -11.221827 -5.996406 -169.893616 12.226661 -47.211018 106.788818
98 106.028137 -11.221827 -5.996406 -169.893616 12.226661 -47.211018 106.788818
[spine02]
97 129.756927 0.001550 0.000119 -1.023899 -3.926965 6.770993 129.756927
98 129.756927 0.001550 0.000119 -1.023899 -3.926965 6.770993 129.756927
[spine03]
97 78.613846 0.087372 -4.898873 1.040681 4.146420 4.212376 78.766380
98 78.613846 0.087372 -4.898873 1.040681 4.146420 4.212376 78.766380
[pelvis]
97 169.435242 0.051022 0.000000 0.019518 -0.190233 -10.721436 169.435257
98 169.435242 0.051022 0.000000 0.019518 -0.190233 -10.721436 169.435257
[null_rope03_connect]
97 -1.257226 -2.466202 137.391083 21.146282 88.832657 -72.228729 137.418976
98 -1.257226 -2.466202 137.391083 21.146282 88.832657 -72.228729 137.418976
[null_rope04_connect]
97 -1.259640 -2.480268 -137.844437 21.146282 88.832657 -72.228729 137.872513
98 -1.259640 -2.480268 -137.844437 21.146282 88.832657 -72.228729 137.872513
[Rope3_Seg01]
97 0.000000 0.000000 0.000000 -141.590652 -36.670582 116.246773 0.000000
98 0.000000 0.000000 0.000000 -142.446701 -33.509789 120.140038 0.000000
[Rope3_Seg02]
97 139.999924 -0.000119 0.000060 5.176203 -13.423556 4.967392 139.999924
98 139.999924 -0.000119 0.000060 5.711777 -12.717348 5.975002 139.999924
[Rope3_Seg03]
97 139.999924 -0.000119 0.000119 6.588376 -15.223433 7.233460 139.999924
98 139.999924 -0.000119 0.000119 6.547801 -13.934707 8.523218 139.999924
[Rope3_Seg04]
97 139.999924 0.000119 0.000000 4.890164 -10.241211 5.375652 139.999924
98 139.999924 0.000119 0.000000 4.407153 -8.953844 6.770151 139.999924
[Rope3_Seg05]
97 139.999924 -0.000238 0.000060 5.925110 -11.985231 11.466742 139.999924
98 139.999924 -0.000238 0.000060 5.095237 -11.368220 11.655999 139.999924
[Rope3_Seg06]
97 139.999893 -0.000119 -0.000060 2.275277 -21.952934 33.491520 139.999893
98 139.999893 -0.000119 -0.000060 1.790791 -21.316065 30.699236 139.999893
[Rope3_Seg07]
97 139.999771 0.000060 -0.000119 -2.774434 -11.926334 23.662048 139.999771
98 139.999771 0.000060 -0.000119 -2.472141 -12.359574 22.419748 139.999771
[Rope3_Seg08]
97 139.999985 -0.000060 0.000000 -1.483456 -4.756661 8.843919 139.999985
98 139.999985 -0.000060 0.000000 -1.354462 -5.108737 8.898390 139.999985
[Rope3_Seg09]
97 90.185997 -0.000179 -0.000060 89.793228 -1.359877 -0.847183 90.185997
98 90.185997 -0.000179 -0.000060 89.793228 -1.359877 -0.847183 90.185997
[R_rear_hand01]
97 103.366196 -6.073594 -10.757982 -164.755127 19.627697 -40.352161 104.101845
98 103.366196 -6.073594 -10.757982 -164.755127 19.627697 -40.352161 104.101845
[R_rear_hand02]
97 100.509819 12.039542 -7.992327 -30.792652 24.782448 38.141541 101.543350
98 100.509819 12.039542 -7.992327 -30.792652 24.782450 38.141541 101.543350
[R_rear_hand03]
97 101.539970 5.215704 5.435467 82.448349 -41.048256 8.840378 101.819031
98 101.539970 5.215704 5.435467 82.448349 -41.048256 8.840378 101.819031
[Rope4_Seg01]
97 0.000010 0.000038 -0.000114 56.466751 -38.077484 70.578140 0.000121
98 0.000010 0.000038 -0.000114 55.724358 -33.815590 69.825935 0.000121
[Rope4_Seg02]
97 139.999985 0.000060 0.000119 -4.662878 1.706312 -14.686155 139.999985
98 139.999985 0.000060 0.000119 -4.949507 2.287131 -15.337581 139.999985
[Rope4_Seg03]
97 139.999924 0.000000 -0.000238 -7.528810 3.550478 -18.005896 139.999924
98 139.999924 0.000000 -0.000238 -7.189196 4.104619 -17.412594 139.999924
[Rope4_Seg04]
97 139.999985 0.000000 0.000119 -6.826904 5.312418 -13.862307 139.999985
98 139.999985 0.000000 0.000119 -5.522043 4.810130 -11.876734 139.999985
[Rope4_Seg05]
97 139.999802 -0.000060 -0.000119 -5.312404 4.553755 -10.908020 139.999802
98 139.999802 -0.000060 -0.000119 -4.996329 4.622006 -10.812744 139.999802
[Rope4_Seg06]
97 139.999924 0.000000 0.000060 -11.323241 9.067683 -21.966173 139.999924
98 139.999924 0.000000 0.000060 -11.826697 10.705942 -23.825317 139.999924
[Rope4_Seg07]
97 139.999802 0.000000 0.000000 -14.989342 17.352081 -29.477745 139.999802
98 139.999802 0.000000 0.000000 -12.729830 17.722492 -27.541773 139.999802
[Rope4_Seg08]
97 139.999924 0.000000 0.000119 -5.445560 11.173288 -12.012611 139.999924
98 139.999924 0.000000 0.000119 -4.445600 10.263071 -11.042370 139.999924
[Rope4_Seg09]
97 90.185791 0.000060 0.000060 -135.617828 2.228885 0.850567 90.185791
98 90.185791 0.000060 0.000060 -135.617828 2.228885 0.850567 90.185791
[L_rear_hand01]
97 101.696655 -8.392275 -7.654577 -31.684452 -23.583008 144.025742 102.329041
98 101.696655 -8.392275 -7.654577 -31.684452 -23.583008 144.025742 102.329041
[L_rear_hand02]
97 102.726799 -1.568258 5.773216 82.701553 38.753956 171.553619 102.900848
98 102.726799 -1.568258 5.773216 82.701553 38.753956 171.553619 102.900848
[L_rear_hand03]
97 104.552910 9.721220 -10.420293 -163.975403 -19.004421 -142.009338 105.519653
98 104.552910 9.721220 -10.420293 -163.975388 -19.004416 -142.009338 105.519653
